<?xml version="1.0" standalone="no" ?>
<!DOCTYPE svg PUBLIC "-//W3C//DTD SVG 1.1//EN" "http://www.w3.org/Graphics/SVG/1.1/DTD/svg11.dtd">
<svg width="253px" height="56px" viewBox="0 0 253 56" style="background-color: #ffffff00" xmlns="http://www.w3.org/2000/svg" xmlns:xlink="http://www.w3.org/1999/xlink" version="1.1" >
<path stroke="none" fill="#000000" transform="matrix(0.05 0 0 0.05 -77 -303)" d="M 1607.36,6789.6 L 1591.34,6801.23 L 1591.34,6449.6 L 1607.36,6461.23 L 1607.36,6789.6 Z " />
<path stroke="none" fill="#000000" transform="matrix(0.05 0 0 0.05 -77 -303)" d="M 1668.56,6750.95 L 1652.54,6750.95 L 1652.54,6499.88 L 1668.56,6499.88 L 1668.56,6750.95 Z " />
<path stroke="none" fill="#000000" transform="matrix(0.05 0 0 0.05 -77 -303)" d="M 1919.65,6891.07 L 1925.77,6909.89 L 1591.34,6801.23 L 1607.36,6789.6 L 1919.65,6891.07 Z " />
<path stroke="none" fill="#000000" transform="matrix(0.05 0 0 0.05 -77 -303)" d="M 2112.66,6625.41 L 2132.45,6625.41 L 1925.77,6909.89 L 1919.65,6891.07 L 2112.66,6625.41 Z " />
<path stroke="none" fill="#000000" transform="matrix(0.05 0 0 0.05 -77 -303)" d="M 2040.43,6620.71 L 2053.39,6630.12 L 1905.81,6833.24 L 1892.85,6823.83 L 2040.43,6620.71 Z " />
<path stroke="none" fill="#000000" transform="matrix(0.05 0 0 0.05 -77 -303)" d="M 1919.65,6359.76 L 1925.77,6340.94 L 2132.45,6625.41 L 2112.66,6625.41 L 1919.65,6359.76 Z " />
<path stroke="none" fill="#000000" transform="matrix(0.05 0 0 0.05 -77 -303)" d="M 1607.36,6461.23 L 1591.34,6449.6 L 1925.77,6340.94 L 1919.65,6359.76 L 1607.36,6461.23 Z " />
<path stroke="none" fill="#000000" transform="matrix(0.05 0 0 0.05 -77 -303)" d="M 3440.71,6609.39 L 2403.33,6609.39 L 2403.33,6593.39 L 3440.71,6593.39 Z " />
<path stroke="none" fill="#000000" transform="matrix(0.05 0 0 0.05 -77 -303)" d="M 2958.08,6641.44 L 3304.54,6641.44 L 3304.54,6657.44 L 2958.08,6657.44 Z " />
<path stroke="none" fill="#000000" transform="matrix(0.05 0 0 0.05 -77 -303)" d="M 3650,6609.39 C 3650,6609.39 3439.71,6609.39 3439.71,6609.39 C 3439.71,6574.23 3409.77,6539.33 3409.77,6539.33 C 3409.77,6539.33 3650,6609.39 3650,6609.39 C 3650,6609.39 3650,6609.39 3650,6609.39 " />
<path stroke="#000000" stroke-width="1" fill="none" transform="matrix(0.05 0 0 0.05 -77 -303)" d="M 3650,6609.39 C 3650,6609.39 3439.71,6609.39 3439.71,6609.39 C 3439.71,6574.23 3409.77,6539.33 3409.77,6539.33 C 3409.77,6539.33 3650,6609.39 3650,6609.39 C 3650,6609.39 3650,6609.39 3650,6609.39 " />
<path stroke="none" fill="#000000" transform="matrix(0.05 0 0 0.05 -77 -303)" d="M 2748.79,6641.44 C 2748.79,6641.44 2989.03,6711.5 2989.03,6711.5 C 2989.03,6711.5 2959.08,6660.6 2959.08,6641.44 C 2959.08,6641.44 2748.79,6641.44 2748.79,6641.44 C 2748.79,6641.44 2748.79,6641.44 2748.79,6641.44 " />
<path stroke="#000000" stroke-width="1" fill="none" transform="matrix(0.05 0 0 0.05 -77 -303)" d="M 2748.79,6641.44 C 2748.79,6641.44 2989.03,6711.5 2989.03,6711.5 C 2989.03,6711.5 2959.08,6660.6 2959.08,6641.44 C 2959.08,6641.44 2748.79,6641.44 2748.79,6641.44 C 2748.79,6641.44 2748.79,6641.44 2748.79,6641.44 " />
<path stroke="none" fill="#000000" transform="matrix(0.05 0 0 0.05 -77 -303)" d="M 3983.92,6808.68 L 3950.25,6834.95 L 4131.79,6520.52 L 4142.38,6534.21 L 3983.92,6808.68 Z " />
<path stroke="none" fill="#000000" transform="matrix(0.05 0 0 0.05 -77 -303)" d="M 4102.66,6725.4 L 4088.79,6717.39 L 4170.61,6575.69 L 4184.48,6583.69 L 4102.66,6725.4 Z " />
<path stroke="none" fill="#000000" transform="matrix(0.05 0 0 0.05 -77 -303)" d="M 4285.99,6722.34 L 4294,6728.38 L 4294.01,6736.71 L 3950.25,6834.95 L 3983.92,6808.68 L 4285.99,6722.34 Z " />
<path stroke="none" fill="#000000" transform="matrix(0.05 0 0 0.05 -77 -303)" d="M 4619.08,6812.41 L 4622.9,6821.81 L 4616.95,6828.45 L 4294.01,6736.71 L 4294,6728.38 L 4302.01,6722.33 L 4619.08,6812.41 Z " />
<path stroke="none" fill="#000000" transform="matrix(0.05 0 0 0.05 -77 -303)" d="M 4780.89,6532.21 L 4792.94,6527.37 L 4791.73,6545.46 L 4631.79,6822.43 L 4622.9,6821.81 L 4619.08,6812.41 L 4780.89,6532.21 Z " />
<path stroke="none" fill="#000000" transform="matrix(0.05 0 0 0.05 -77 -303)" d="M 4473.28,6442.91 L 4473.33,6434.58 L 4478.53,6427.75 L 4798.87,6520.75 L 4792.94,6527.37 L 4780.89,6532.21 L 4473.28,6442.91 Z " />
<path stroke="none" fill="#000000" transform="matrix(0.05 0 0 0.05 -77 -303)" d="M 4142.38,6534.21 L 4131.79,6520.52 L 4240.99,6490.39 L 4240.99,6507 L 4142.38,6534.21 L 4142.38,6534.21 Z " />
<path stroke="none" fill="#000000" transform="matrix(0.05 0 0 0.05 -77 -303)" d="M 4460.91,6429.71 L 4473.33,6434.58 L 4473.28,6442.91 L 4347.01,6477.75 L 4347.01,6461.13 L 4460.91,6429.71 L 4460.91,6429.71 Z " />
<path stroke="none" fill="#000000" transform="matrix(0.05 0 0 0.05 -77 -303)" d="M 4285.99,6115.88 L 4302.01,6172.31 L 4302.01,6722.33 L 4294,6728.38 L 4285.99,6722.34 L 4285.99,6115.88 Z " />
<path stroke="none" fill="#000000" transform="matrix(0.05 0 0 0.05 -77 -303)" d="M 4478.53,6427.75 L 4473.33,6434.58 L 4460.91,6429.71 L 4302.01,6172.31 L 4285.99,6115.88 L 4478.53,6427.75 Z " />
<path stroke="none" fill="#000000" transform="matrix(0.05 0 0 0.05 -77 -303)" d="M 4746.82,7105.52 L 4738.07,7126.52 L 4616.95,6828.45 L 4622.9,6821.81 L 4631.79,6822.43 L 4746.82,7105.52 Z " />
<path stroke="none" fill="#000000" transform="matrix(0.05 0 0 0.05 -77 -303)" d="M 4917.4,6808.42 L 4901.38,6811.59 L 4791.73,6545.46 L 4792.94,6527.37 L 4798.87,6520.75 L 4917.4,6808.42 Z " />
<path stroke="none" fill="#000000" transform="matrix(0.05 0 0 0.05 -77 -303)" d="M 4917.4,7051.76 L 4901.38,7041.08 L 4901.38,6811.59 L 4917.4,6808.42 L 4917.4,7051.76 Z " />
<path stroke="none" fill="#000000" transform="matrix(0.05 0 0 0.05 -77 -303)" d="M 4874.84,7018.05 L 4858.82,7018.05 L 4858.82,6818.43 L 4874.84,6818.43 L 4874.84,7018.05 Z " />
<path stroke="none" fill="#000000" transform="matrix(0.05 0 0 0.05 -77 -303)" d="M 4901.38,7041.08 L 4917.4,7051.76 L 4738.07,7126.52 L 4746.82,7105.52 L 4901.38,7041.08 Z " />
<text x="0" y="0" stroke="none" fill="#000000" transform="matrix(0.05 0 0 0.05 179.271 31.7937)" font-style="normal" font-weight="normal" font-size="200px" font-family="Arial" >
+</text>
<path stroke="none" fill="#000000" transform="matrix(0.05 0 0 0.05 -77 -303)" d="M 5483.92,6808.68 L 5450.25,6834.95 L 5631.79,6520.52 L 5642.38,6534.21 L 5483.92,6808.68 Z " />
<path stroke="none" fill="#000000" transform="matrix(0.05 0 0 0.05 -77 -303)" d="M 5602.66,6725.4 L 5588.79,6717.39 L 5670.61,6575.69 L 5684.48,6583.69 L 5602.66,6725.4 Z " />
<path stroke="none" fill="#000000" transform="matrix(0.05 0 0 0.05 -77 -303)" d="M 5785.99,6722.34 L 5794,6728.38 L 5794.01,6736.71 L 5450.25,6834.95 L 5483.92,6808.68 L 5785.99,6722.34 Z " />
<path stroke="none" fill="#000000" transform="matrix(0.05 0 0 0.05 -77 -303)" d="M 6119.08,6812.41 L 6122.9,6821.81 L 6122.82,6830.12 L 5794.01,6736.71 L 5794,6728.38 L 5802.01,6722.33 L 6119.08,6812.41 Z " />
<path stroke="none" fill="#000000" transform="matrix(0.05 0 0 0.05 -77 -303)" d="M 6280.89,6532.21 L 6292.94,6527.37 L 6298.36,6533.99 L 6139.45,6809.17 L 6122.9,6821.81 L 6119.08,6812.41 L 6280.89,6532.21 Z " />
<path stroke="none" fill="#000000" transform="matrix(0.05 0 0 0.05 -77 -303)" d="M 5973.28,6442.91 L 5973.33,6434.58 L 5978.53,6427.75 L 6292.76,6518.98 L 6292.94,6527.37 L 6280.89,6532.21 L 5973.28,6442.91 Z " />
<path stroke="none" fill="#000000" transform="matrix(0.05 0 0 0.05 -77 -303)" d="M 5642.38,6534.21 L 5631.79,6520.52 L 5740.99,6490.39 L 5740.99,6507 L 5642.38,6534.21 L 5642.38,6534.21 Z " />
<path stroke="none" fill="#000000" transform="matrix(0.05 0 0 0.05 -77 -303)" d="M 5960.91,6429.71 L 5973.33,6434.58 L 5973.28,6442.91 L 5847.01,6477.75 L 5847.01,6461.13 L 5960.91,6429.71 L 5960.91,6429.71 Z " />
<path stroke="none" fill="#000000" transform="matrix(0.05 0 0 0.05 -77 -303)" d="M 5785.99,6115.88 L 5802.01,6172.31 L 5802.01,6722.33 L 5794,6728.38 L 5785.99,6722.34 L 5785.99,6115.88 Z " />
<path stroke="none" fill="#000000" transform="matrix(0.05 0 0 0.05 -77 -303)" d="M 5978.53,6427.75 L 5973.33,6434.58 L 5960.91,6429.71 L 5802.01,6172.31 L 5785.99,6115.88 L 5978.53,6427.75 Z " />
<path stroke="none" fill="#000000" transform="matrix(0.05 0 0 0.05 -77 -303)" d="M 6368.96,6748.66 L 6375.93,6763.38 L 6122.82,6830.12 L 6122.9,6821.81 L 6139.45,6809.17 L 6368.96,6748.66 Z " />
<path stroke="none" fill="#000000" transform="matrix(0.05 0 0 0.05 -77 -303)" d="M 6484.93,6454.48 L 6475.07,6474.69 L 6298.36,6533.99 L 6292.94,6527.37 L 6292.76,6518.98 L 6484.93,6454.48 Z " />
<path stroke="none" fill="#000000" transform="matrix(0.05 0 0 0.05 -77 -303)" d="M 6549.54,6637.56 L 6530.46,6631.61 L 6475.07,6474.69 L 6484.93,6454.48 L 6549.54,6637.56 Z " />
<path stroke="none" fill="#000000" transform="matrix(0.05 0 0 0.05 -77 -303)" d="M 6499.84,6617.05 L 6484.74,6622.38 L 6447.81,6517.75 L 6462.92,6512.42 L 6499.84,6617.05 Z " />
<path stroke="none" fill="#000000" transform="matrix(0.05 0 0 0.05 -77 -303)" d="M 6530.46,6631.61 L 6549.54,6637.56 L 6375.93,6763.38 L 6368.96,6748.66 L 6530.46,6631.61 Z " />
</svg>
