<?xml version="1.0" encoding="utf-8"?>
<!-- Generator: Adobe Illustrator 23.0.3, SVG Export Plug-In . SVG Version: 6.00 Build 0)  -->
<svg version="1.1" id="Layer_1" xmlns="http://www.w3.org/2000/svg" xmlns:xlink="http://www.w3.org/1999/xlink" x="0px" y="0px"
	 viewBox="0 0 512 512" style="enable-background:new 0 0 512 512;" xml:space="preserve">
<style type="text/css">
	.st0{fill:#4FD8BE;}
	.st1{opacity:0.14;}
	.st2{fill:#17292D;}
	.st3{fill:#07342D;}
	.st4{fill:#00372A;}
</style>
<title>Course repo</title>
<path class="st0" d="M115.2,499.2C86.9,499.2,64,476.3,64,448V64c0-28.3,22.9-51.2,51.2-51.2H302l146,146.1V448
	c0,28.3-22.9,51.2-51.2,51.2H115.2z"/>
<g class="st1">
	<path class="st2" d="M435.2,128L435.2,128l-88.5-88.5c-30.3,5.6-52.3,32.1-52.3,62.9V128c0,35.3,28.7,64,64,64h76.8V128z"/>
</g>
<path class="st0" d="M358.4,153.6c-28.3,0-51.2-22.9-51.2-51.2V18.1l135.1,135.5H358.4z"/>
<path class="st3" d="M307.3,0H115.2c-35.3,0-64,28.7-64,64v384c0,35.3,28.7,64,64,64h281.6c35.3,0,64-28.7,64-64V153.6L307.3,0z
	 M411.5,140.8h-53.1c-21.2,0-38.4-17.2-38.4-38.4V49.1L411.5,140.8z M435.2,448c0,21.2-17.2,38.4-38.4,38.4H115.2
	c-21.2,0-38.4-17.2-38.4-38.4V64c0-21.2,17.2-38.4,38.4-38.4h179.2v76.8c0,35.3,28.7,64,64,64h76.8V448z"/>
<path class="st3" d="M201.8,290.2l-55.5,29.9c-4.2,2.5-5.5,4-5.5,8.5v8.3c0,4.5,1.3,5.8,5.5,8.3l55.5,30c5.2,2.7,7,1,7-5.1v-11.4
	c0-7.1-1-8.5-6.2-11l-30.7-15v-0.8l30.9-15.1c4.9-2.5,6-3.8,6-11v-10.4C208.8,289.2,207,287.6,201.8,290.2z"/>
<path class="st3" d="M287.5,268.8h-13.4c-4.7,0-6.7,1.2-8.2,5.6l-43.8,116.7c-1.3,4-0.5,5.6,4,5.6h13.4c4.7,0,6.7-1.2,8.2-5.6
	l43.8-116.7C293,270.5,292,268.8,287.5,268.8z"/>
<path class="st4" d="M303,295.2v11.3c0,7.1,1.2,8.5,6.4,11l30.7,15v0.8l-30.9,15.1c-4.8,2.5-6.2,4.1-6.2,11v10.8c0,6,2.3,7.6,7.2,5
	l55.5-29.9c4.2-2.5,5.5-4.3,5.5-8.5v-8.3c0-4.1-1.3-5.8-5.5-8.3l-55.5-30C305.4,287.4,303,289,303,295.2z"/>
</svg>
