<?xml version="1.0" encoding="UTF-8" standalone="no"?> <svg id="Layer_1" data-name="Layer 1" xmlns="http://www.w3.org/2000/svg" viewBox="0 0 512 512"><defs><style>.cls-1{fill:#d9e4e8;}.cls-2{fill:#9bbdc6;}.cls-3{fill:#141f38;}</style></defs><title>multiple-documents-filled</title><path class="cls-1" d="M448,158.9V345.6a51.26,51.26,0,0,1-51.2,51.2A51.26,51.26,0,0,1,345.6,448a51.26,51.26,0,0,1-51.2,51.2H115.2A51.26,51.26,0,0,1,64,448V166.4a51.26,51.26,0,0,1,51.2-51.2A51.26,51.26,0,0,1,166.4,64a51.26,51.26,0,0,1,51.2-51.2h84.49Z"/><path class="cls-2" d="M358.4,153.6a51.26,51.26,0,0,1-51.2-51.2V18.12L442.34,153.6Z"/><path class="cls-3" d="M307.39,0H217.6a64,64,0,0,0-62.88,52.32,64,64,0,0,0-51.2,51.2A64,64,0,0,0,51.2,166.4V448a64,64,0,0,0,64,64H294.4a64,64,0,0,0,62.88-52.32,64,64,0,0,0,51.2-51.2A64,64,0,0,0,460.8,345.6v-192Zm104.1,140.8H358.4A38.44,38.44,0,0,1,320,102.4V49.08ZM294.4,486.4H115.2A38.44,38.44,0,0,1,76.8,448V166.4a38.43,38.43,0,0,1,25.6-36.16V396.8a64,64,0,0,0,64,64H330.56A38.43,38.43,0,0,1,294.4,486.4Zm51.2-51.2H166.4A38.44,38.44,0,0,1,128,396.8V115.2A38.43,38.43,0,0,1,153.6,79V345.6a64,64,0,0,0,64,64H381.76A38.43,38.43,0,0,1,345.6,435.2Zm89.6-89.6A38.44,38.44,0,0,1,396.8,384H217.6a38.44,38.44,0,0,1-38.4-38.4V64a38.44,38.44,0,0,1,38.4-38.4h76.8v76.8a64,64,0,0,0,64,64h76.8Zm-192-128A12.8,12.8,0,0,1,256,204.8h51.2a12.8,12.8,0,1,1,0,25.6H256A12.8,12.8,0,0,1,243.2,217.6ZM358.4,256a12.8,12.8,0,0,1,0,25.6H256a12.8,12.8,0,0,1,0-25.6Zm12.42,64A12.8,12.8,0,0,1,358,332.8H256a12.8,12.8,0,0,1,0-25.6H358A12.8,12.8,0,0,1,370.82,320Z"/></svg>