<?xml version="1.0" encoding="UTF-8" standalone="no"?> <svg id="Layer_1" data-name="Layer 1" xmlns="http://www.w3.org/2000/svg" viewBox="0 0 512 512"><defs><style>.cls-1{fill:#d9e4e8;}.cls-2{fill:#9bbdc6;}.cls-3{fill:#3fc451;}.cls-4{fill:#141f38;}</style></defs><title>Download in PDF</title><path class="cls-1" d="M76.8,499.2A51.26,51.26,0,0,1,25.6,448V64A51.26,51.26,0,0,1,76.8,12.8H263.64l146,146.1V448a51.26,51.26,0,0,1-51.2,51.2Z"/><path class="cls-2" d="M320,153.6a51.26,51.26,0,0,1-51.2-51.2V18.12L403.94,153.6Z"/><path class="cls-3" d="M409.6,499.2a76.8,76.8,0,1,1,76.8-76.8A76.88,76.88,0,0,1,409.6,499.2Z"/><path class="cls-4" d="M115.2,256A12.8,12.8,0,0,1,128,243.2h76.8a12.8,12.8,0,0,1,0,25.6H128A12.8,12.8,0,0,1,115.2,256Zm166.4,38.4H128a12.8,12.8,0,0,0,0,25.6H281.6a12.8,12.8,0,0,0,0-25.6Zm-.38,51.2H128a12.8,12.8,0,0,0,0,25.6H281.22a12.8,12.8,0,0,0,0-25.6Zm218,76.8a89.52,89.52,0,0,1-117.47,85.13A63.38,63.38,0,0,1,358.4,512H76.8a64,64,0,0,1-64-64V64a64,64,0,0,1,64-64H268.94L422.4,153.6V333.82A89.54,89.54,0,0,1,499.2,422.4ZM281.6,49.08V102.4A38.44,38.44,0,0,0,320,140.8h53.09ZM347,486.4A89.48,89.48,0,0,1,396.8,333.82V166.4H320a64,64,0,0,1-64-64V25.6H76.8A38.44,38.44,0,0,0,38.4,64V448a38.44,38.44,0,0,0,38.4,38.4Zm126.65-64a64,64,0,1,0-64,64A64.07,64.07,0,0,0,473.6,422.4Zm-47.45-9.05-3.75,3.75V396.8a12.8,12.8,0,1,0-25.6,0v20.3l-3.75-3.75a12.8,12.8,0,1,0-18.1,18.1l25.6,25.6a11.06,11.06,0,0,0,3.59,2.47c.21.1.4.24.62.33a12.61,12.61,0,0,0,1.81.54c.19,0,.37.13.57.17a12.75,12.75,0,0,0,4.93,0c.1,0,.19-.07.29-.09a12.6,12.6,0,0,0,2.11-.64h0l.09-.06a12.67,12.67,0,0,0,2.76-1.66c.24-.18.47-.36.69-.56s.42-.31.61-.49l25.6-25.6a12.8,12.8,0,1,0-18.1-18.1Z"/></svg>