<?xml version="1.0" standalone="no" ?>
<!DOCTYPE svg PUBLIC "-//W3C//DTD SVG 1.1//EN" "http://www.w3.org/Graphics/SVG/1.1/DTD/svg11.dtd">
<svg width="194px" height="39px" viewBox="0 0 194 39" style="background-color: #ffffff00" xmlns="http://www.w3.org/2000/svg" xmlns:xlink="http://www.w3.org/1999/xlink" version="1.1" >
<path stroke="none" fill="#000000" transform="matrix(0.05 0 0 0.05 -67 -236)" d="M 1417.25,5427.42 L 1383.59,5453.7 L 1566.6,5136.71 L 1574.23,5155.52 L 1417.25,5427.42 Z " />
<path stroke="none" fill="#000000" transform="matrix(0.05 0 0 0.05 -67 -236)" d="M 1727.33,5338.8 L 1727.34,5355.46 L 1383.59,5453.7 L 1417.25,5427.42 L 1727.33,5338.8 Z " />
<path stroke="none" fill="#000000" transform="matrix(0.05 0 0 0.05 -67 -236)" d="M 2052.42,5431.15 L 2060.04,5449.97 L 1727.34,5355.46 L 1727.33,5338.8 L 2052.42,5431.15 Z " />
<path stroke="none" fill="#000000" transform="matrix(0.05 0 0 0.05 -67 -236)" d="M 2209.44,5159.25 L 2226.27,5146.11 L 2230.13,5155.44 L 2060.04,5449.97 L 2052.42,5431.15 L 2209.44,5159.25 Z " />
<path stroke="none" fill="#000000" transform="matrix(0.05 0 0 0.05 -67 -236)" d="M 1899.33,5247.84 L 1899.32,5231.19 L 2226.2,5137.81 L 2226.27,5146.11 L 2209.44,5159.25 L 1899.33,5247.84 Z " />
<path stroke="none" fill="#000000" transform="matrix(0.05 0 0 0.05 -67 -236)" d="M 1574.23,5155.52 L 1566.6,5136.71 L 1899.32,5231.19 L 1899.33,5247.84 L 1574.23,5155.52 Z " />
<text x="0" y="0" stroke="none" fill="#000000" transform="matrix(0.05 0 0 0.05 58.3666 29.498)" font-style="normal" font-weight="normal" font-size="200px" font-family="Arial" >
R</text>
<path stroke="none" fill="#000000" transform="matrix(0.05 0 0 0.05 -67 -236)" d="M 2457.99,5199.91 L 2453.84,5215.38 L 2230.13,5155.44 L 2226.27,5146.11 L 2226.2,5137.81 L 2457.99,5199.91 Z " />
<path stroke="none" fill="#000000" transform="matrix(0.05 0 0 0.05 -67 -236)" d="M 4283.92,5427.42 L 4250.25,5453.7 L 4433.27,5136.71 L 4440.9,5155.52 L 4283.92,5427.42 Z " />
<path stroke="none" fill="#000000" transform="matrix(0.05 0 0 0.05 -67 -236)" d="M 4594,5338.8 L 4594.01,5355.46 L 4250.25,5453.7 L 4283.92,5427.42 L 4594,5338.8 Z " />
<path stroke="none" fill="#000000" transform="matrix(0.05 0 0 0.05 -67 -236)" d="M 4919.08,5431.15 L 4926.71,5449.97 L 4594.01,5355.46 L 4594,5338.8 L 4919.08,5431.15 Z " />
<path stroke="none" fill="#000000" transform="matrix(0.05 0 0 0.05 -67 -236)" d="M 5076.1,5159.25 L 5092.94,5146.11 L 5100.94,5148.26 L 4926.71,5449.97 L 4919.08,5431.15 L 5076.1,5159.25 Z " />
<path stroke="none" fill="#000000" transform="matrix(0.05 0 0 0.05 -67 -236)" d="M 4766,5247.84 L 4765.99,5231.19 L 5084.93,5140.07 L 5092.94,5146.11 L 5076.1,5159.25 L 4766,5247.84 Z " />
<path stroke="none" fill="#000000" transform="matrix(0.05 0 0 0.05 -67 -236)" d="M 4440.9,5155.52 L 4433.27,5136.71 L 4765.99,5231.19 L 4766,5247.84 L 4440.9,5155.52 Z " />
<text x="0" y="0" stroke="none" fill="#000000" transform="matrix(0.05 0 0 0.05 184.493 9.56615)" font-style="normal" font-weight="normal" font-size="200px" font-family="Arial" >
R</text>
<path stroke="none" fill="#000000" transform="matrix(0.05 0 0 0.05 -67 -236)" d="M 5084.93,4955.11 L 5100.94,4955.11 L 5100.94,5148.26 L 5092.94,5146.11 L 5084.93,5140.07 L 5084.93,4955.11 Z " />
<path stroke="none" fill="#000000" transform="matrix(0.05 0 0 0.05 -67 -236)" d="M 3034.38,5305.57 L 4065.17,5305.57 L 4065.17,5321.57 L 3034.38,5321.57 Z " />
<path stroke="none" fill="#000000" transform="matrix(0.05 0 0 0.05 -67 -236)" d="M 3512.7,5273.52 L 3168.44,5273.52 L 3168.44,5257.52 L 3512.7,5257.52 Z " />
<path stroke="none" fill="#000000" transform="matrix(0.05 0 0 0.05 -67 -236)" d="M 2825.17,5305.57 C 2825.17,5305.57 3035.38,5305.57 3035.38,5305.57 C 3035.38,5340.28 3065.41,5374.63 3065.41,5374.63 C 3065.41,5374.63 2825.17,5305.57 2825.17,5305.57 C 2825.17,5305.57 2825.17,5305.57 2825.17,5305.57 " />
<path stroke="#000000" stroke-width="1" fill="none" transform="matrix(0.05 0 0 0.05 -67 -236)" d="M 2825.17,5305.57 C 2825.17,5305.57 3035.38,5305.57 3035.38,5305.57 C 3035.38,5340.28 3065.41,5374.63 3065.41,5374.63 C 3065.41,5374.63 2825.17,5305.57 2825.17,5305.57 C 2825.17,5305.57 2825.17,5305.57 2825.17,5305.57 " />
<path stroke="none" fill="#000000" transform="matrix(0.05 0 0 0.05 -67 -236)" d="M 3721.91,5273.52 C 3721.91,5273.52 3481.67,5204.46 3481.67,5204.46 C 3481.67,5204.46 3511.7,5254.81 3511.7,5273.52 C 3511.7,5273.52 3721.91,5273.52 3721.91,5273.52 C 3721.91,5273.52 3721.91,5273.52 3721.91,5273.52 " />
<path stroke="#000000" stroke-width="1" fill="none" transform="matrix(0.05 0 0 0.05 -67 -236)" d="M 3721.91,5273.52 C 3721.91,5273.52 3481.67,5204.46 3481.67,5204.46 C 3481.67,5204.46 3511.7,5254.81 3511.7,5273.52 C 3511.7,5273.52 3721.91,5273.52 3721.91,5273.52 C 3721.91,5273.52 3721.91,5273.52 3721.91,5273.52 " />
<text x="0" y="0" stroke="none" fill="#000000" transform="matrix(0.05 0 0 0.05 106.042 20.2004)" font-style="normal" font-weight="normal" font-size="200px" font-family="Arial" >
&#x394;G</text>
</svg>
