<?xml version="1.0" standalone="no" ?>
<!DOCTYPE svg PUBLIC "-//W3C//DTD SVG 1.1//EN" "http://www.w3.org/Graphics/SVG/1.1/DTD/svg11.dtd">
<svg width="401px" height="97px" viewBox="0 0 401 97" style="background-color: #ffffff00" xmlns="http://www.w3.org/2000/svg" xmlns:xlink="http://www.w3.org/1999/xlink" version="1.1" >
<path stroke="none" fill="#000000" transform="matrix(0.05 0 0 0.05 -84 -47)" d="M 3593.56,1898.71 L 3577.54,1907.96 L 3577.54,1567.96 L 3585.55,1563.33 L 3593.56,1567.96 L 3593.56,1898.71 Z " />
<path stroke="none" fill="#000000" transform="matrix(0.05 0 0 0.05 -84 -47)" d="M 3654.76,1868 L 3638.74,1868 L 3638.74,1598.67 L 3654.76,1598.67 L 3654.76,1868 Z " />
<path stroke="none" fill="#000000" transform="matrix(0.05 0 0 0.05 -84 -47)" d="M 3880,2064.09 L 3880,2082.58 L 3577.54,1907.96 L 3593.56,1898.71 L 3880,2064.09 Z " />
<path stroke="none" fill="#000000" transform="matrix(0.05 0 0 0.05 -84 -47)" d="M 4166.44,1898.71 L 4174.45,1903.33 L 4174.45,1912.58 L 3880,2082.58 L 3880,2064.09 L 4166.44,1898.71 Z " />
<path stroke="none" fill="#000000" transform="matrix(0.05 0 0 0.05 -84 -47)" d="M 4109.24,1861.06 L 4117.25,1874.93 L 3884,2009.6 L 3876,1995.73 L 4109.24,1861.06 Z " />
<path stroke="none" fill="#000000" transform="matrix(0.05 0 0 0.05 -84 -47)" d="M 4166.44,1567.96 L 4182.46,1558.71 L 4182.46,1898.71 L 4174.45,1903.33 L 4166.44,1898.71 L 4166.44,1567.96 Z " />
<path stroke="none" fill="#000000" transform="matrix(0.05 0 0 0.05 -84 -47)" d="M 3880,1402.58 L 3880,1384.09 L 4182.46,1558.71 L 4166.44,1567.96 L 3880,1402.58 Z " />
<path stroke="none" fill="#000000" transform="matrix(0.05 0 0 0.05 -84 -47)" d="M 3876,1470.94 L 3884,1457.07 L 4117.25,1591.73 L 4109.24,1605.6 L 3876,1470.94 Z " />
<path stroke="none" fill="#000000" transform="matrix(0.05 0 0 0.05 -84 -47)" d="M 3593.56,1567.96 L 3585.55,1563.33 L 3585.55,1554.09 L 3880,1384.09 L 3880,1402.58 L 3593.56,1567.96 Z " />
<text x="0" y="0" stroke="none" fill="#000000" transform="matrix(0.05 0 0 0.05 136.625 60.2482)" font-style="normal" font-weight="normal" font-size="200px" font-family="Arial" >
N</text>
<path stroke="none" fill="#000000" transform="matrix(0.05 0 0 0.05 -84 -47)" d="M 4359.45,2000.9 L 4351.44,2014.77 L 4174.45,1912.58 L 4174.45,1903.33 L 4182.46,1898.71 L 4359.45,2000.9 Z " />
<text x="0" y="0" stroke="none" fill="#000000" transform="matrix(0.05 0 0 0.05 136.022 77.2482)" font-style="normal" font-weight="normal" font-size="200px" font-family="Arial" >
O</text>
<path stroke="none" fill="#000000" transform="matrix(0.05 0 0 0.05 -84 -47)" d="M 4507.51,2294.48 L 4491.49,2294.48 L 4491.49,2189.75 L 4507.51,2189.75 L 4507.51,2294.48 Z " />
<path stroke="none" fill="#000000" transform="matrix(0.05 0 0 0.05 -84 -47)" d="M 4446.31,2294.48 L 4430.29,2294.48 L 4430.29,2189.75 L 4446.31,2189.75 L 4446.31,2294.48 Z " />
<text x="0" y="0" stroke="none" fill="#000000" transform="matrix(0.05 0 0 0.05 150.744 51.7482)" font-style="normal" font-weight="normal" font-size="200px" font-family="Arial" >
O</text>
<path stroke="none" fill="#000000" transform="matrix(0.05 0 0 0.05 -84 -47)" d="M 4642.05,1928.78 L 4650.06,1942.65 L 4569.58,1989.12 L 4561.57,1975.25 L 4642.05,1928.78 Z " />
<path stroke="none" fill="#000000" transform="matrix(0.05 0 0 0.05 -84 -47)" d="M 4672.65,1981.78 L 4680.66,1995.65 L 4600.18,2042.12 L 4592.17,2028.25 L 4672.65,1981.78 Z " />
<path stroke="none" fill="#000000" transform="matrix(0.05 0 0 0.05 -84 -47)" d="M 3291.1,1402.58 L 3291.1,1393.33 L 3299.11,1388.71 L 3585.55,1554.09 L 3585.55,1563.33 L 3577.54,1567.96 L 3291.1,1402.58 Z " />
<text x="0" y="0" stroke="none" fill="#000000" transform="matrix(0.05 0 0 0.05 77.1396 9.2482)" font-style="normal" font-weight="normal" font-size="200px" font-family="Arial" >
Me</text>
<path stroke="none" fill="#000000" transform="matrix(0.05 0 0 0.05 -84 -47)" d="M 3283.09,1169.75 L 3299.11,1169.75 L 3299.11,1388.71 L 3291.1,1393.33 L 3283.09,1388.71 L 3283.09,1169.75 Z " />
<path stroke="none" fill="#000000" transform="matrix(0.05 0 0 0.05 -84 -47)" d="M 3004.66,1567.96 L 2996.65,1563.33 L 2996.65,1554.09 L 3283.09,1388.71 L 3291.1,1393.33 L 3291.1,1402.58 L 3004.66,1567.96 Z " />
<path stroke="none" fill="#000000" transform="matrix(0.05 0 0 0.05 -84 -47)" d="M 3061.86,1605.6 L 3053.85,1591.73 L 3287.1,1457.07 L 3295.11,1470.94 L 3061.86,1605.6 Z " />
<text x="0" y="0" stroke="none" fill="#000000" transform="matrix(0.05 0 0 0.05 62.4099 51.7482)" font-style="normal" font-weight="normal" font-size="200px" font-family="Arial" >
O</text>
<path stroke="none" fill="#000000" transform="matrix(0.05 0 0 0.05 -84 -47)" d="M 3004.66,1784.48 L 2988.65,1784.48 L 2988.65,1567.96 L 2996.65,1563.33 L 3004.66,1567.96 L 3004.66,1784.48 Z " />
<text x="0" y="0" stroke="none" fill="#000000" transform="matrix(0.05 0 0 0.05 39.6088 26.2482)" font-style="normal" font-weight="normal" font-size="200px" font-family="Arial" >
Me</text>
<path stroke="none" fill="#000000" transform="matrix(0.05 0 0 0.05 -84 -47)" d="M 2791.84,1454.33 L 2799.85,1440.46 L 2996.65,1554.09 L 2996.65,1563.33 L 2988.65,1567.96 L 2791.84,1454.33 Z " />
<text x="0" y="0" stroke="none" fill="#000000" transform="matrix(0.05 0 0 0.05 48.2612 60.2482)" font-style="normal" font-weight="normal" font-size="200px" font-family="Arial" >
S</text>
<path stroke="none" fill="#000000" transform="matrix(0.05 0 0 0.05 -84 -47)" d="M 2802.21,2024.84 L 2794.2,2010.97 L 2890.66,1955.28 L 2898.67,1969.15 L 2802.21,2024.84 Z " />
<text x="0" y="0" stroke="none" fill="#000000" transform="matrix(0.05 0 0 0.05 40.1131 73.3673)" font-style="normal" font-weight="normal" font-size="200px" font-family="Arial" >
O</text>
<path stroke="none" fill="#000000" transform="matrix(0.05 0 0 0.05 -84 -47)" d="M 2640.64,2250.52 L 2626.77,2242.51 L 2658.36,2187.8 L 2672.23,2195.8 L 2640.64,2250.52 Z " />
<path stroke="none" fill="#000000" transform="matrix(0.05 0 0 0.05 -84 -47)" d="M 2593.41,2223.25 L 2579.54,2215.25 L 2611.13,2160.53 L 2625,2168.54 L 2593.41,2223.25 Z " />
<text x="0" y="0" stroke="none" fill="#000000" transform="matrix(0.05 0 0 0.05 21.2385 51.2793)" font-style="normal" font-weight="normal" font-size="200px" font-family="Arial" >
F</text>
<text x="0" y="0" stroke="none" fill="#000000" transform="matrix(0.05 0 0 0.05 27.3469 53.3984)" font-style="normal" font-weight="normal" font-size="150px" font-family="Arial" >
3</text>
<text x="0" y="0" stroke="none" fill="#000000" transform="matrix(0.05 0 0 0.05 31.5181 51.2793)" font-style="normal" font-weight="normal" font-size="200px" font-family="Arial" >
C</text>
<path stroke="none" fill="#000000" transform="matrix(0.05 0 0 0.05 -84 -47)" d="M 2489.17,1959.58 L 2497.17,1945.71 L 2608.15,2009.79 L 2600.15,2023.66 L 2489.17,1959.58 Z " />
<text x="0" y="0" stroke="none" fill="#000000" transform="matrix(0.05 0 0 0.05 55.4957 73.7725)" font-style="normal" font-weight="normal" font-size="200px" font-family="Arial" >
O</text>
<path stroke="none" fill="#000000" transform="matrix(0.05 0 0 0.05 -84 -47)" d="M 2829.86,2222.2 L 2815.99,2230.2 L 2780.28,2168.36 L 2794.15,2160.36 L 2829.86,2222.2 Z " />
<path stroke="none" fill="#000000" transform="matrix(0.05 0 0 0.05 -84 -47)" d="M 2781.17,2250.31 L 2767.3,2258.31 L 2731.6,2196.47 L 2745.47,2188.47 L 2781.17,2250.31 Z " />
<text x="0" y="0" stroke="none" fill="#000000" transform="matrix(0.05 0 0 0.05 1.88015 92.2116)" font-style="normal" font-weight="normal" font-size="200px" font-family="Arial" >
(</text>
<text x="0" y="0" stroke="none" fill="#000000" transform="matrix(0.05 0 0 0.05 5.21023 92.2116)" font-style="italic" font-weight="normal" font-size="200px" font-family="Arial" >
Z</text>
<text x="0" y="0" stroke="none" fill="#000000" transform="matrix(0.05 0 0 0.05 11.3186 92.2116)" font-style="normal" font-weight="normal" font-size="200px" font-family="Arial" >
)-3-(4-nitrophenyl)but-2-en-2-yl </text>
<text x="0" y="0" stroke="none" fill="#000000" transform="matrix(0.05 0 0 0.05 150.811 92.2116)" font-style="normal" font-weight="normal" font-size="200px" font-family="Arial" >
triflate</text>
<path stroke="none" fill="#000000" transform="matrix(0.05 0 0 0.05 -84 -47)" d="M 8129.07,1898.71 L 8113.05,1907.96 L 8113.05,1567.96 L 8121.06,1563.33 L 8129.07,1567.96 L 8129.07,1898.71 Z " />
<path stroke="none" fill="#000000" transform="matrix(0.05 0 0 0.05 -84 -47)" d="M 8190.27,1868 L 8174.25,1868 L 8174.25,1598.67 L 8190.27,1598.67 L 8190.27,1868 Z " />
<path stroke="none" fill="#000000" transform="matrix(0.05 0 0 0.05 -84 -47)" d="M 8415.51,2064.09 L 8415.51,2082.58 L 8113.05,1907.96 L 8129.07,1898.71 L 8415.51,2064.09 Z " />
<path stroke="none" fill="#000000" transform="matrix(0.05 0 0 0.05 -84 -47)" d="M 8701.95,1898.71 L 8709.96,1903.33 L 8709.96,1912.58 L 8415.51,2082.58 L 8415.51,2064.09 L 8701.95,1898.71 Z " />
<path stroke="none" fill="#000000" transform="matrix(0.05 0 0 0.05 -84 -47)" d="M 8644.76,1861.06 L 8652.76,1874.93 L 8419.51,2009.6 L 8411.51,1995.73 L 8644.76,1861.06 Z " />
<path stroke="none" fill="#000000" transform="matrix(0.05 0 0 0.05 -84 -47)" d="M 8701.95,1567.96 L 8717.97,1558.71 L 8717.97,1898.71 L 8709.96,1903.33 L 8701.95,1898.71 L 8701.95,1567.96 Z " />
<path stroke="none" fill="#000000" transform="matrix(0.05 0 0 0.05 -84 -47)" d="M 8415.51,1402.58 L 8415.51,1384.09 L 8717.97,1558.71 L 8701.95,1567.96 L 8415.51,1402.58 Z " />
<path stroke="none" fill="#000000" transform="matrix(0.05 0 0 0.05 -84 -47)" d="M 8411.51,1470.94 L 8419.51,1457.07 L 8652.76,1591.73 L 8644.76,1605.6 L 8411.51,1470.94 Z " />
<path stroke="none" fill="#000000" transform="matrix(0.05 0 0 0.05 -84 -47)" d="M 8129.07,1567.96 L 8121.06,1563.33 L 8121.06,1554.09 L 8415.51,1384.09 L 8415.51,1402.58 L 8129.07,1567.96 Z " />
<text x="0" y="0" stroke="none" fill="#000000" transform="matrix(0.05 0 0 0.05 363.401 60.2482)" font-style="normal" font-weight="normal" font-size="200px" font-family="Arial" >
N</text>
<path stroke="none" fill="#000000" transform="matrix(0.05 0 0 0.05 -84 -47)" d="M 8894.96,2000.9 L 8886.95,2014.77 L 8709.96,1912.58 L 8709.96,1903.33 L 8717.97,1898.71 L 8894.96,2000.9 Z " />
<text x="0" y="0" stroke="none" fill="#000000" transform="matrix(0.05 0 0 0.05 362.798 77.2482)" font-style="normal" font-weight="normal" font-size="200px" font-family="Arial" >
O</text>
<path stroke="none" fill="#000000" transform="matrix(0.05 0 0 0.05 -84 -47)" d="M 9043.02,2294.48 L 9027,2294.48 L 9027,2189.75 L 9043.02,2189.75 L 9043.02,2294.48 Z " />
<path stroke="none" fill="#000000" transform="matrix(0.05 0 0 0.05 -84 -47)" d="M 8981.82,2294.48 L 8965.8,2294.48 L 8965.8,2189.75 L 8981.82,2189.75 L 8981.82,2294.48 Z " />
<text x="0" y="0" stroke="none" fill="#000000" transform="matrix(0.05 0 0 0.05 377.52 51.7482)" font-style="normal" font-weight="normal" font-size="200px" font-family="Arial" >
O</text>
<path stroke="none" fill="#000000" transform="matrix(0.05 0 0 0.05 -84 -47)" d="M 9177.56,1928.78 L 9185.57,1942.65 L 9105.09,1989.12 L 9097.08,1975.25 L 9177.56,1928.78 Z " />
<path stroke="none" fill="#000000" transform="matrix(0.05 0 0 0.05 -84 -47)" d="M 9208.16,1981.78 L 9216.17,1995.65 L 9135.69,2042.12 L 9127.68,2028.25 L 9208.16,1981.78 Z " />
<path stroke="none" fill="#000000" transform="matrix(0.05 0 0 0.05 -84 -47)" d="M 7826.61,1402.58 L 7826.61,1393.33 L 7834.62,1388.71 L 8121.06,1554.09 L 8121.06,1563.33 L 8113.05,1567.96 L 7826.61,1402.58 Z " />
<text x="0" y="0" stroke="none" fill="#000000" transform="matrix(0.05 0 0 0.05 303.915 9.2482)" font-style="normal" font-weight="normal" font-size="200px" font-family="Arial" >
Me</text>
<path stroke="none" fill="#000000" transform="matrix(0.05 0 0 0.05 -84 -47)" d="M 7818.61,1169.75 L 7834.62,1169.75 L 7834.62,1388.71 L 7826.61,1393.33 L 7818.61,1388.71 L 7818.61,1169.75 Z " />
<path stroke="none" fill="#000000" transform="matrix(0.05 0 0 0.05 -84 -47)" d="M 7540.17,1567.96 L 7532.16,1563.33 L 7532.16,1554.09 L 7818.61,1388.71 L 7826.61,1393.33 L 7826.61,1402.58 L 7540.17,1567.96 Z " />
<path stroke="none" fill="#000000" transform="matrix(0.05 0 0 0.05 -84 -47)" d="M 7597.37,1605.6 L 7589.36,1591.73 L 7822.61,1457.07 L 7830.62,1470.94 L 7597.37,1605.6 Z " />
<text x="0" y="0" stroke="none" fill="#000000" transform="matrix(0.05 0 0 0.05 289.193 51.7482)" font-style="normal" font-weight="normal" font-size="200px" font-family="Arial" >
Me</text>
<path stroke="none" fill="#000000" transform="matrix(0.05 0 0 0.05 -84 -47)" d="M 7540.17,1786.75 L 7524.16,1786.75 L 7524.16,1567.96 L 7532.16,1563.33 L 7540.17,1567.96 L 7540.17,1786.75 Z " />
<text x="0" y="0" stroke="none" fill="#000000" transform="matrix(0.05 0 0 0.05 274.463 26.2482)" font-style="normal" font-weight="normal" font-size="200px" font-family="Arial" >
O</text>
<path stroke="none" fill="#000000" transform="matrix(0.05 0 0 0.05 -84 -47)" d="M 7335.1,1458.8 L 7343.11,1444.93 L 7532.16,1554.09 L 7532.16,1563.33 L 7524.16,1567.96 L 7335.1,1458.8 Z " />
<text x="0" y="0" stroke="none" fill="#000000" transform="matrix(0.05 0 0 0.05 222.267 92.2116)" font-style="normal" font-weight="normal" font-size="200px" font-family="Arial" >
(</text>
<text x="0" y="0" stroke="none" fill="#000000" transform="matrix(0.05 0 0 0.05 225.597 92.2116)" font-style="italic" font-weight="normal" font-size="200px" font-family="Arial" >
E</text>
<text x="0" y="0" stroke="none" fill="#000000" transform="matrix(0.05 0 0 0.05 232.267 92.2116)" font-style="normal" font-weight="normal" font-size="200px" font-family="Arial" >
)-3-(4-nitrophenyl)but-2-en-2-yl </text>
<text x="0" y="0" stroke="none" fill="#000000" transform="matrix(0.05 0 0 0.05 371.759 92.2116)" font-style="normal" font-weight="normal" font-size="200px" font-family="Arial" >
triflate</text>
<text x="0" y="0" stroke="none" fill="#000000" transform="matrix(0.05 0 0 0.05 260.314 34.7482)" font-style="normal" font-weight="normal" font-size="200px" font-family="Arial" >
S</text>
<path stroke="none" fill="#000000" transform="matrix(0.05 0 0 0.05 -84 -47)" d="M 7043.27,1514.84 L 7035.26,1500.97 L 7131.72,1445.28 L 7139.73,1459.15 L 7043.27,1514.84 Z " />
<text x="0" y="0" stroke="none" fill="#000000" transform="matrix(0.05 0 0 0.05 235.798 27.2266)" font-style="normal" font-weight="normal" font-size="200px" font-family="Arial" >
F</text>
<text x="0" y="0" stroke="none" fill="#000000" transform="matrix(0.05 0 0 0.05 241.907 29.3457)" font-style="normal" font-weight="normal" font-size="150px" font-family="Arial" >
3</text>
<text x="0" y="0" stroke="none" fill="#000000" transform="matrix(0.05 0 0 0.05 246.078 27.2266)" font-style="normal" font-weight="normal" font-size="200px" font-family="Arial" >
C</text>
<path stroke="none" fill="#000000" transform="matrix(0.05 0 0 0.05 -84 -47)" d="M 6780.36,1478.53 L 6788.37,1464.66 L 6849.22,1499.79 L 6841.21,1513.66 L 6780.36,1478.53 Z " />
<text x="0" y="0" stroke="none" fill="#000000" transform="matrix(0.05 0 0 0.05 251.365 49.2553)" font-style="normal" font-weight="normal" font-size="200px" font-family="Arial" >
O</text>
<path stroke="none" fill="#000000" transform="matrix(0.05 0 0 0.05 -84 -47)" d="M 6868.17,1769.72 L 6854.3,1761.72 L 6901.92,1679.24 L 6915.79,1687.25 L 6868.17,1769.72 Z " />
<path stroke="none" fill="#000000" transform="matrix(0.05 0 0 0.05 -84 -47)" d="M 6815.95,1739.57 L 6802.08,1731.56 L 6849.69,1649.09 L 6863.56,1657.09 L 6815.95,1739.57 Z " />
<text x="0" y="0" stroke="none" fill="#000000" transform="matrix(0.05 0 0 0.05 267.892 48.8661)" font-style="normal" font-weight="normal" font-size="200px" font-family="Arial" >
O</text>
<path stroke="none" fill="#000000" transform="matrix(0.05 0 0 0.05 -84 -47)" d="M 7078.84,1723.45 L 7064.97,1731.46 L 7022.41,1657.75 L 7036.28,1649.74 L 7078.84,1723.45 Z " />
<path stroke="none" fill="#000000" transform="matrix(0.05 0 0 0.05 -84 -47)" d="M 7028.02,1752.79 L 7014.15,1760.8 L 6971.59,1687.09 L 6985.46,1679.08 L 7028.02,1752.79 Z " />
</svg>
